<?xml version="1.0" encoding="UTF-8"?>
<svg width="26px" height="26px" viewBox="0 0 26 26" version="1.1" xmlns="http://www.w3.org/2000/svg" xmlns:xlink="http://www.w3.org/1999/xlink">
    <title>information</title>
    <g id="-" stroke="none" stroke-width="1" fill="none" fill-rule="evenodd">
        <g id="Design-LandingNEW2021-Copy-4" transform="translate(-246.000000, -5196.000000)" fill="#000000" fill-rule="nonzero">
            <g id="information" transform="translate(246.000000, 5196.000000)">
                <circle id="Oval" cx="12.8" cy="18.925" r="1.25"></circle>
                <path d="M12.8,0 C5.7258,0 0,5.72485 0,12.8 C0,19.8742 5.72485,25.6 12.8,25.6 C19.8742,25.6 25.6,19.87515 25.6,12.8 C25.6,5.7258 19.87515,0 12.8,0 Z M12.8,23.6 C6.83115,23.6 2,18.76965 2,12.8 C2,6.83115 6.83035,2 12.8,2 C18.76885,2 23.6,6.83035 23.6,12.8 C23.6,18.76885 18.76965,23.6 12.8,23.6 Z" id="Shape"></path>
                <path d="M12.8,6.425 C10.5944,6.425 8.8,8.2194 8.8,10.425 C8.8,10.9773 9.2477,11.425 9.8,11.425 C10.3523,11.425 10.8,10.9773 10.8,10.425 C10.8,9.3222 11.6972,8.425 12.8,8.425 C13.9028,8.425 14.8,9.3222 14.8,10.425 C14.8,11.5278 13.9028,12.425 12.8,12.425 C12.2477,12.425 11.8,12.8727 11.8,13.425 L11.8,15.925 C11.8,16.4773 12.2477,16.925 12.8,16.925 C13.3523,16.925 13.8,16.4773 13.8,15.925 L13.8,14.29845 C15.5233,13.8533 16.8,12.28545 16.8,10.425 C16.8,8.2194 15.0056,6.425 12.8,6.425 Z" id="Path"></path>
            </g>
        </g>
    </g>
</svg>