<?xml version="1.0" encoding="UTF-8"?>
<svg width="51px" height="22px" viewBox="0 0 51 22" version="1.1" xmlns="http://www.w3.org/2000/svg" xmlns:xlink="http://www.w3.org/1999/xlink">
    <title>icon-chain</title>
    <g id="-" stroke="none" stroke-width="1" fill="none" fill-rule="evenodd">
        <g id="Design-LandingNEW2021-Copy-4" transform="translate(-450.000000, -2184.000000)" fill="#FFFFFF" fill-rule="nonzero" stroke="#000000" stroke-width="1.2">
            <g id="icon-chain" transform="translate(451.000000, 2185.000000)">
                <polygon id="Path" points="13.381824 6.184128 8.64 10.925856 6.778176 9.064128 4.741824 11.100576 8.64 14.998848 15.418176 8.220576"></polygon>
                <path d="M49.156704,10.082304 L45.526752,2.882304 L17.126784,2.882304 C15.307968,1.101888 12.820224,0.002304 10.08,0.002304 C4.521888,0.002304 -5.45696821e-15,4.524192 -5.45696821e-15,10.082304 C-5.45696821e-15,15.640416 4.521888,20.162304 10.08,20.162304 C12.820128,20.162304 15.307968,19.06272 17.126784,17.282304 L45.526752,17.282304 L49.156704,10.082304 Z M37.269984,10.082304 L35.109984,14.402304 L29.68992,14.402304 L31.84992,10.082304 L29.68992,5.762304 L35.109984,5.762304 L37.269984,10.082304 Z M28.629984,10.082304 L26.469984,14.402304 L19.18608,14.402304 C19.81008,13.092192 20.16,11.627424 20.16,10.082304 C20.16,8.537184 19.81008,7.072416 19.18608,5.762304 L26.469984,5.762304 L28.629984,10.082304 Z M10.08,17.282304 C6.10992,17.282304 2.88,14.052384 2.88,10.082304 C2.88,6.112224 6.10992,2.882304 10.08,2.882304 C14.05008,2.882304 17.28,6.112224 17.28,10.082304 C17.28,14.052384 14.05008,17.282304 10.08,17.282304 Z M38.32992,14.402304 L40.48992,10.082304 L38.32992,5.762304 L43.753248,5.762304 L45.931296,10.082304 L43.753248,14.402304 L38.32992,14.402304 Z" id="Shape"></path>
            </g>
        </g>
    </g>
</svg>