<?xml version="1.0" encoding="UTF-8"?>
<svg width="17px" height="9px" viewBox="0 0 17 9" version="1.1" xmlns="http://www.w3.org/2000/svg" xmlns:xlink="http://www.w3.org/1999/xlink">
    <title>icon-up</title>
    <defs>
        <polygon id="path-1" points="0 0 17 0 17 9 0 9"></polygon>
    </defs>
    <g id="-" stroke="none" stroke-width="1" fill="none" fill-rule="evenodd">
        <g id="Design-LandingNEW2021-Copy-4" transform="translate(-712.000000, -11164.000000)">
            <g id="icon-up" transform="translate(712.000000, 11164.000000)">
                <mask id="mask-2" fill="white">
                    <use xlink:href="#path-1"></use>
                </mask>
                <g id="Clip-2"></g>
                <path d="M8.50120548,1.82451339 C8.42831097,1.89155083 8.36408674,1.94831474 8.30264556,2.00788052 C6.00373913,4.2363049 3.70419046,6.46410665 1.40785301,8.69502158 C1.16166011,8.93432244 0.891811294,9.06559546 0.541789223,8.9588129 C0.0206095707,8.79983245 -0.168958958,8.19753316 0.170680196,7.78285569 C0.220561017,7.72204463 0.280396594,7.66870524 0.33723504,7.6136017 C2.83470139,5.19153665 5.33238181,2.76967913 7.83006224,0.347925395 C8.30853278,-0.115940535 8.69505562,-0.115940535 9.17299096,0.347717849 C11.6764516,2.77497156 14.1789488,5.20315924 16.6844432,7.62844126 C16.8886762,7.82602532 17.0309329,8.04114704 16.9942181,8.33015523 C16.9566469,8.62549358 16.7936244,8.83957757 16.5050435,8.9449073 C16.1978376,9.05708606 15.915465,8.99689764 15.6815818,8.77399294 C15.2168124,8.33088164 14.7577162,7.88237413 14.2969073,7.43542323 C12.4309793,5.62582723 10.5652653,3.81581615 8.6992302,2.00632393 C8.63789605,1.94696569 8.57345774,1.89072065 8.50120548,1.82451339" id="Fill-1" fill="#FFFFFF" mask="url(#mask-2)"></path>
            </g>
        </g>
    </g>
</svg>