<?xml version="1.0" encoding="UTF-8"?>
<svg width="42px" height="31px" viewBox="0 0 42 31" version="1.1" xmlns="http://www.w3.org/2000/svg" xmlns:xlink="http://www.w3.org/1999/xlink">
    <title>bar-chart</title>
    <g id="-" stroke="none" stroke-width="1" fill="none" fill-rule="evenodd">
        <g id="Design-LandingNEW2021-Copy-4" transform="translate(-193.000000, -615.000000)" fill-rule="nonzero" stroke="#FFFFFF" stroke-width="1.54092375">
            <g id="bar-chart" transform="translate(194.117132, 616.311386)">
                <path d="M17.307181,13.0177423 L11.3900153,13.0177423 C11.0633887,13.0177423 10.7982821,13.282849 10.7982821,13.6094755 L10.7982821,27.8106288 C10.7982821,28.1371999 11.0633887,28.4023066 11.3900153,28.4023066 L17.307181,28.4023066 C17.6338075,28.4023066 17.8989142,28.1371999 17.8989142,27.8105733 L17.8989142,13.6094201 C17.8989142,13.2827935 17.6349724,13.0177423 17.307181,13.0177423 Z" id="Path"></path>
                <path d="M6.52071471,20.1183467 L0.603549014,20.1183467 C0.276922489,20.1183467 0.0118158033,20.3834534 0.0118158033,20.7100799 L0.0118158033,27.8106288 C0.0118158033,28.1371999 0.276922489,28.4023066 0.603549014,28.4023066 L6.52071471,28.4023066 C6.84734123,28.4023066 7.11244792,28.1371999 7.11244792,27.8105733 L7.11244792,20.7100244 C7.11244792,20.3833979 6.84850617,20.1183467 6.52071471,20.1183467 Z" id="Path-Copy"></path>
                <path d="M27.9343588,5.32543248 L22.0171931,5.32543248 C21.6905666,5.32543248 21.4254599,5.59053917 21.4254599,5.91716569 L21.4254599,27.8106288 C21.4254599,28.1372553 21.6905666,28.402362 22.0171931,28.402362 L27.9343588,28.402362 C28.2609854,28.402362 28.526092,28.1372553 28.526092,27.8106288 L28.526092,5.91716569 C28.526092,5.59053917 28.2609854,5.32543248 27.9343588,5.32543248 Z" id="Path"></path>
                <path d="M38.5852238,-2.73723044e-15 L32.6680581,-2.73723044e-15 C32.3414316,-2.73723044e-15 32.0763249,0.265106686 32.0763249,0.591733211 L32.0763249,27.8106288 C32.0763249,28.1372553 32.3414316,28.402362 32.6680581,28.402362 L38.5852238,28.402362 C38.9118503,28.402362 39.176957,28.1372553 39.176957,27.8106288 L39.176957,0.591733211 C39.176957,0.265051212 38.9118503,-2.73723044e-15 38.5852238,-2.73723044e-15 Z" id="Path"></path>
            </g>
        </g>
    </g>
</svg>