<?xml version="1.0" encoding="UTF-8"?>
<svg width="19px" height="30px" viewBox="0 0 19 30" version="1.1" xmlns="http://www.w3.org/2000/svg" xmlns:xlink="http://www.w3.org/1999/xlink">
    <title>smartphone</title>
    <g id="-" stroke="none" stroke-width="1" fill="none" fill-rule="evenodd">
        <g id="Design-LandingNEW2021-Copy-4" transform="translate(-336.000000, -614.000000)" fill="#FFFFFF" fill-rule="nonzero">
            <g id="smartphone" transform="translate(336.652579, 614.000000)">
                <path d="M11.6108412,4.26549726 L8.65226759,4.26549726 C8.24349905,4.26549726 7.91262419,4.59637211 7.91262419,5.00514066 C7.91262419,5.41390921 8.24349905,5.74478406 8.65226759,5.74478406 L11.6108412,5.74478406 C12.0196097,5.74478406 12.3504846,5.41390921 12.3504846,5.00514066 C12.3504846,4.59637211 12.0196097,4.26549726 11.6108412,4.26549726 Z" id="Path"></path>
                <path d="M14.8159819,0 L2.98168746,0 C1.35054262,0 0.0231138563,1.32742876 0.0231138563,2.9585736 L0.0231138563,26.6271624 C0.0231138563,28.2583072 1.35054262,29.585736 2.98168746,29.585736 L14.8159819,29.585736 C16.4471267,29.585736 17.7745555,28.2583072 17.7745555,26.6271624 L17.7745555,2.9585736 C17.7745555,1.32742876 16.4471267,0 14.8159819,0 Z M16.2231139,26.185 C16.2231139,26.9831367 15.5784889,27.63 14.7831139,27.63 L3.26311386,27.63 C2.46773886,27.63 1.82311386,26.9831367 1.82311386,26.185 L1.82311386,3.065 C1.82311386,2.26686328 2.46773886,1.62 3.26311386,1.62 L14.7831139,1.62 C15.5784889,1.62 16.2231139,2.26686328 16.2231139,3.065 L16.2231139,26.185 Z" id="Shape"></path>
                <circle id="Oval" cx="8.89883466" cy="23.8409519" r="1.4792868"></circle>
                <circle id="Oval" cx="6.18682812" cy="5.00514066" r="1"></circle>
            </g>
        </g>
    </g>
</svg>