<?xml version="1.0" encoding="UTF-8"?>
<svg width="39px" height="30px" viewBox="0 0 39 30" version="1.1" xmlns="http://www.w3.org/2000/svg" xmlns:xlink="http://www.w3.org/1999/xlink">
    <title>icon-learn</title>
    <g id="-" stroke="none" stroke-width="1" fill="none" fill-rule="evenodd">
        <g id="Design-LandingNEW2021-Copy-4" transform="translate(-348.000000, -2180.000000)" fill="#FFFFFF" fill-rule="nonzero">
            <g id="icon-learn" transform="translate(348.000000, 2180.000000)">
                <path d="M38.2976,10.0491494 L19.1308131,0.0602299648 L0,10.0526573 L9.05569089,14.8069435 L9.05569089,22.3698716 L29.2816146,22.3698716 L29.2816146,14.8053762 L33.7596789,12.443048 L33.7596789,21.0060025 L31.5049735,25.9253801 L34.879195,29.7290479 L38.2534164,25.9253801 L35.9987111,21.0060025 L35.9987111,11.2618839 L38.2976,10.0491494 Z M34.879195,26.3550503 L34.1485242,25.531385 L34.879195,23.9371942 L35.6098658,25.531385 L34.879195,26.3550503 Z M27.0425825,20.1308395 L11.294723,20.1308395 L11.294723,12.8636875 C13.7606438,11.7425295 16.3933724,11.1747109 19.1313355,11.1747109 C21.8734036,11.1747109 24.5936037,11.7573071 27.0425825,12.8645831 L27.0425825,20.1308395 Z M29.2816146,12.2738518 L29.2816146,11.4640685 C28.920608,11.3303983 25.0011076,8.93567876 19.1313355,8.93567876 C13.2649221,8.93567876 9.50088511,11.2974845 9.05569089,11.4640685 L9.05569089,12.2780313 L4.8264577,10.0576578 L19.1319326,2.58570896 L33.4759935,10.0612402 L29.2816146,12.2738518 Z" id="Shape"></path>
            </g>
        </g>
    </g>
</svg>