<?xml version="1.0" encoding="UTF-8"?>
<svg width="37px" height="28px" viewBox="0 0 37 28" version="1.1" xmlns="http://www.w3.org/2000/svg" xmlns:xlink="http://www.w3.org/1999/xlink">
    <title>icon-video</title>
    <g id="-" stroke="none" stroke-width="1" fill="none" fill-rule="evenodd">
        <g id="Design-LandingNEW2021-Copy-4" transform="translate(-242.000000, -2181.000000)" fill="#FFFFFF" fill-rule="nonzero">
            <g id="icon-video" transform="translate(242.000000, 2181.000000)">
                <path d="M24.1062188,12.3114375 L15.9620625,7.85531246 C15.4937812,7.59909377 14.9402812,7.60865623 14.4812812,7.880625 C14.022,8.152875 13.7480625,8.63381246 13.7480625,9.167625 L13.7480625,18.003375 C13.7480625,18.5346562 14.0203125,19.01475 14.4765,19.2872812 C14.7147188,19.4295938 14.9788125,19.5010312 15.2434688,19.5010312 C15.4859062,19.5010312 15.7289062,19.441125 15.9525,19.32075 L24.0969375,14.9414062 C24.5804062,14.68125 24.8821875,14.1786562 24.8844472,13.629375 C24.8864062,13.0800938 24.5882812,12.57525 24.1062188,12.3114375 L24.1062188,12.3114375 Z M15.9083438,16.891875 L15.9083438,10.288125 L21.9951562,13.6186875 L15.9083438,16.891875 Z" id="Shape"></path>
                <path d="M36.592875,6.58996877 L36.5911875,6.57309377 C36.5599688,6.276375 36.2491875,3.637125 34.966125,2.29471877 C33.4830938,0.715781232 31.8017812,0.523968768 30.9931875,0.432 C30.92625,0.424406232 30.8649375,0.417375 30.8100938,0.410062464 L30.7456875,0.403312464 C25.8721875,0.048937536 18.5121562,0.0005625 18.4384688,0.00028125 L18.432,0 L18.4255312,0.00028125 C18.3518438,0.0005625 10.9918125,0.048937536 6.07443754,0.403312464 L6.00946877,0.410062464 C5.95715623,0.417093768 5.8995,0.423562464 5.83678123,0.430875 C5.03746877,0.523125 3.37415623,0.715218768 1.88690623,2.35125 C0.664875,3.67931246 0.311625,6.26203123 0.275343768,6.55228123 L0.271125,6.58996877 C0.260156232,6.71343754 -4.09272616e-15,9.65278123 -4.09272616e-15,12.6036562 L-4.09272616e-15,15.3621562 C-4.09272616e-15,18.3130312 0.260156232,21.252375 0.271125,21.376125 L0.273093768,21.3946875 C0.304312464,21.686625 0.614812464,24.2775 1.89196877,25.6204688 C3.28640623,27.1465312 5.04956246,27.3484688 5.99793754,27.4570312 C6.14784377,27.4741875 6.27693754,27.4888125 6.36496877,27.5042812 L6.45018754,27.5160938 C9.26409377,27.7838438 18.086625,27.91575 18.4606875,27.9210938 L18.4719375,27.921375 L18.4831875,27.9210938 C18.556875,27.9208125 25.916625,27.8724375 30.790125,27.5180625 L30.8545312,27.5113125 C30.916125,27.5031562 30.9853125,27.4958438 31.06125,27.4879688 C31.8560625,27.4035938 33.510375,27.228375 34.9770938,25.6145625 C36.199125,24.2862188 36.5526562,21.7035 36.5886562,21.4135312 L36.592875,21.3758438 C36.6038438,21.2520938 36.8642812,18.3130312 36.8642812,15.3621562 L36.8642812,12.6036562 C36.8642812,9.65278123 36.6038438,6.71371877 36.592875,6.58996877 L36.592875,6.58996877 Z M34.7037188,15.3621562 C34.7037188,18.093375 34.4652188,20.9061562 34.4427188,21.1643438 C34.3510312,21.875625 33.978375,23.5096875 33.3829688,24.1568438 C32.4649688,25.1668125 31.5219375,25.2669375 30.8334375,25.3397812 C30.7501875,25.3485 30.673125,25.3569375 30.603375,25.3656562 C25.889625,25.7065312 18.8074688,25.7588438 18.4812188,25.7608125 C18.1153125,25.7554688 9.421875,25.6224375 6.69375,25.3690312 C6.55396877,25.34625 6.40293754,25.3288125 6.24375,25.3108125 C5.43628123,25.2182812 4.33096877,25.0917188 3.48103123,24.1568438 L3.46106246,24.1354688 C2.87606246,23.526 2.51409377,21.9979688 2.422125,21.1727812 C2.40496877,20.9775938 2.16028123,18.131625 2.16028123,15.3621562 L2.16028123,12.6036562 C2.16028123,9.87553123 2.39821877,7.06584377 2.42128123,6.80231246 C2.53068754,5.96446877 2.910375,4.42940623 3.48103123,3.80896877 C4.42715623,2.76834377 5.42475,2.65303123 6.08456246,2.57681246 C6.14756246,2.5695 6.20634377,2.56275 6.260625,2.55571877 C11.043,2.21315623 18.1760625,2.16225 18.432,2.16028123 C18.6879375,2.16196877 25.8184688,2.21315623 30.558375,2.55571877 C30.6165938,2.56303123 30.6801562,2.57034377 30.7485,2.57821877 C31.4271562,2.65556246 32.452875,2.77256246 33.3942188,3.776625 L33.4029375,3.78590623 C33.9879375,4.395375 34.3499062,5.950125 34.441875,6.79190623 C34.4581875,6.976125 34.7037188,9.82828123 34.7037188,12.6036562 L34.7037188,15.3621562 Z" id="Shape"></path>
            </g>
        </g>
    </g>
</svg>