<?xml version="1.0" encoding="UTF-8"?>
<svg width="19px" height="30px" viewBox="0 0 19 30" version="1.1" xmlns="http://www.w3.org/2000/svg" xmlns:xlink="http://www.w3.org/1999/xlink">
    <title>hourglass</title>
    <g id="-" stroke="none" stroke-width="1" fill="none" fill-rule="evenodd">
        <g id="Design-LandingNEW2021-Copy-4" transform="translate(-462.000000, -614.000000)" fill="#FFFFFF" fill-rule="nonzero">
            <g id="hourglass" transform="translate(462.237865, 614.770462)">
                <path d="M16.8042288,26.4052832 L15.9554326,26.4052832 L15.9554326,20.8412742 C15.9554326,19.4266646 15.1067126,17.7293008 13.9750859,16.8805046 L10.6744064,14.2399152 L13.9750859,11.5993259 C15.1067126,10.7506821 15.9554326,9.0530896 15.9554326,7.63855627 L15.9554326,1.88606987 L16.8042288,1.88606987 C17.3700422,1.88606987 17.7473019,1.5088864 17.7473019,0.942996796 C17.7473019,0.377183463 17.3700422,0 16.8042288,0 L0.961074143,0 C0.39526081,0 0.0180010712,0.377183463 0.0180010712,0.943073072 C0.0180010712,1.5088864 0.395184534,1.88614614 0.961074143,1.88614614 L1.80979414,1.88614614 L1.80979414,7.63870882 C1.80979414,9.05331843 2.65851414,10.7506821 3.79014081,11.5994784 L7.09082028,14.2400678 L3.79014081,16.8806571 C2.65851414,17.7293008 1.80979414,19.4268934 1.80979414,20.8414267 L1.80979414,26.4054358 L0.961074143,26.4054358 C0.39526081,26.4054358 0.0180010712,26.7826193 0.0180010712,27.3485089 C0.0180010712,27.9143222 0.395184534,28.2915819 0.961074143,28.2915819 L16.8042288,28.2915819 C17.3700422,28.2915819 17.7473019,27.9143985 17.7473019,27.3485089 C17.7473019,26.7824667 17.3700422,26.4052832 16.8042288,26.4052832 Z M4.92184375,10.090592 C4.26167734,9.61905548 3.69594029,8.48742882 3.69594029,7.63870882 L3.69594029,1.88606987 L14.069439,1.88606987 L14.069439,7.63863254 C14.069439,8.39299947 13.5036256,9.61897921 12.8435355,10.0905157 L9.16559629,13.0139355 C8.99984914,13.124459 8.89924146,13.2673997 8.84401783,13.4236887 C8.77521713,13.3044697 8.6876526,13.1960819 8.59985924,13.1082886 L4.92184375,10.090592 Z M14.0692864,26.4052832 L3.69586401,26.4052832 L3.69586401,20.8412742 C3.69586401,19.9924779 4.26167734,18.8609275 4.92176747,18.389391 L8.59970669,15.4659712 C8.76545384,15.3554477 8.86606152,15.212507 8.92128514,15.0562943 C8.99008585,15.1755133 9.07765038,15.2839011 9.16544374,15.3716944 L12.843383,18.389391 C13.5035494,18.8609275 14.0692864,19.9925542 14.0692864,20.8412742 L14.0692864,26.4052832 L14.0692864,26.4052832 Z" id="Shape"></path>
            </g>
        </g>
    </g>
</svg>