<svg xmlns="http://www.w3.org/2000/svg" viewBox="0 0 171.07 171.07"><defs><style>.cls-1{fill:#fff;}</style></defs><title>Asset 2</title><g id="Layer_2" data-name="Layer 2"><g id="Logo_1" data-name="Logo 1"><path class="cls-1" d="M154.74,22.83A6.79,6.79,0,1,1,161.53,16,6.8,6.8,0,0,1,154.74,22.83Zm0-12.32A5.53,5.53,0,1,0,160.27,16,5.54,5.54,0,0,0,154.74,10.51Z"/><path class="cls-1" d="M157.19,19.61a13.22,13.22,0,0,1-.54-1.95,2.08,2.08,0,0,0-.91-1.44A2,2,0,0,0,157,14.38a1.94,1.94,0,0,0-.6-1.46,3.08,3.08,0,0,0-2.17-.63,9.77,9.77,0,0,0-1.81.17l-.09,0v7.3h1.16V16.66h.76c.79,0,1.14.37,1.34,1.31a9.16,9.16,0,0,0,.48,1.75l0,.06h1.22Zm-1.41-5.14c0,.76-.59,1.25-1.51,1.25h-.83V13.31a4.9,4.9,0,0,1,.8-.06C154.94,13.25,155.78,13.46,155.78,14.47Z"/><path class="cls-1" d="M85.54,13.87A71.67,71.67,0,0,0,25.29,124.35L64.1,85.54H41.22L31,95.76a56.47,56.47,0,0,1-.94-10.22A55.49,55.49,0,0,1,140,75a56.3,56.3,0,0,1,1,10.54A55.52,55.52,0,0,1,75,140l10.53-10.53V106.6L58.27,133.87,46.5,145.64a71.67,71.67,0,1,0,39-131.77Z"/><path class="cls-1" d="M85.54,0a85.54,85.54,0,1,0,85.53,85.54A85.54,85.54,0,0,0,85.54,0Zm0,164.14a78.29,78.29,0,0,1-49.67-17.68L104,78.3v9.81L97.09,95v22.89L104,111l16.18-16.19V50.86H75.9L59.71,67,52.78,74H75.66L82.6,67h9.8L24.45,135a78.6,78.6,0,1,1,61.09,29.15Z"/></g></g></svg>