<?xml version="1.0" encoding="UTF-8"?>
<svg width="65px" height="23px" viewBox="0 0 65 23" version="1.1" xmlns="http://www.w3.org/2000/svg" xmlns:xlink="http://www.w3.org/1999/xlink">
    <title>logo-icon-app</title>
    <g id="-" stroke="none" stroke-width="1" fill="none" fill-rule="evenodd">
        <g id="Design-LandingNEW2021-Copy-4" transform="translate(-313.000000, -234.000000)" fill="#FFFFFF">
            <g id="logo-icon-app" transform="translate(313.000000, 234.000000)">
                <path d="M2.74610952,-0.00027104 L-0.00020328,22.3523978 L5.89627192,22.3523978 L6.64773032,15.9992202 L19.8080775,15.9992202 L21.8029319,-0.00027104 L2.74610952,-0.00027104 Z M7.92026312,5.90230256 L15.1821023,5.90230256 L14.6515415,10.0966466 L7.38902472,10.0966466 L7.92026312,5.90230256 Z" id="Fill-1"></path>
                <path d="M24.130759,-0.00027104 L21.3844462,22.3523978 L27.2809214,22.3523978 L28.0018878,16.1225434 L32.034963,16.1225434 L34.379459,22.3523978 L41.2354158,22.3523978 L38.8909198,16.1225434 L41.162235,16.1225434 L43.1875814,-0.00027104 L24.130759,-0.00027104 Z M29.3049126,5.90230256 L36.5667518,5.90230256 L36.005699,10.2199698 L28.7431822,10.2199698 L29.3049126,5.90230256 Z" id="Fill-2"></path>
                <path d="M45.5154084,-0.00027104 L42.7690956,22.3523978 L61.825918,22.3523978 L64.5722308,-0.00027104 L45.5154084,-0.00027104 Z M50.6902396,5.90230256 L57.9527564,5.90230256 L56.6517644,16.4498242 L49.3892476,16.4498242 L50.6902396,5.90230256 Z" id="Fill-3"></path>
            </g>
        </g>
    </g>
</svg>