<?xml version="1.0" encoding="UTF-8"?>
<svg width="290px" height="26px" viewBox="0 0 290 26" version="1.1" xmlns="http://www.w3.org/2000/svg" xmlns:xlink="http://www.w3.org/1999/xlink">
    <title>Group 13</title>
    <g id="-" stroke="none" stroke-width="1" fill="none" fill-rule="evenodd">
        <g id="Design-LandingNEW2021-Copy-5" transform="translate(-150.000000, -73.000000)" fill="#FFFFFF">
            <g id="Group-13" transform="translate(150.000000, 73.000000)">
                <path d="M3.120579,-0.000308 L-0.000231,25.400452 L6.700309,25.400452 L7.554239,18.180932 L22.509179,18.180932 L24.776059,-0.000308 L3.120579,-0.000308 Z M9.000299,6.707162 L17.252389,6.707162 L16.649479,11.473462 L8.396619,11.473462 L9.000299,6.707162 Z" id="Fill-1"></path>
                <path d="M27.421317,-0.000308 L24.300507,25.400452 L31.001047,25.400452 L31.820327,18.321072 L36.403367,18.321072 L39.067567,25.400452 L46.858427,25.400452 L44.194227,18.321072 L46.775267,18.321072 L49.076797,-0.000308 L27.421317,-0.000308 Z M33.301037,6.707162 L41.553127,6.707162 L40.915567,11.613602 L32.662707,11.613602 L33.301037,6.707162 Z" id="Fill-2"></path>
                <path d="M51.722055,-0.000308 L48.601245,25.400452 L70.256725,25.400452 L73.377535,-0.000308 L51.722055,-0.000308 Z M57.602545,6.707162 L65.855405,6.707162 L64.377005,18.692982 L56.124145,18.692982 L57.602545,6.707162 Z" id="Fill-3"></path>
                <polygon id="Fill-4" points="76.423193 9.346337 75.584663 16.053807 91.632233 16.053807 92.470763 9.346337"></polygon>
                <path d="M97.797546,-0.000308 L94.676736,25.400452 L101.378816,25.400452 L102.070276,19.791772 L110.323136,19.791772 L109.631676,25.400452 L116.332216,25.400452 L119.453026,-0.000308 L97.797546,-0.000308 Z M103.678036,6.707162 L111.930896,6.707162 L111.144726,13.085072 L102.891096,13.085072 L103.678036,6.707162 Z" id="Fill-5"></path>
                <polygon id="Fill-6" points="122.098977 -0.000308 121.277387 6.707162 128.754857 6.707162 126.454867 25.400452 133.156177 25.400452 135.456167 6.707162 142.933637 6.707162 143.754457 -0.000308"></polygon>
                <polygon id="Fill-7" points="161.353962 -0.000308 160.181252 9.563862 151.927622 9.563862 153.101102 -0.000308 146.399792 -0.000308 143.278982 25.400452 149.979522 25.400452 151.119892 16.053422 159.373522 16.053422 158.233152 25.400452 164.934462 25.400452 168.055272 -0.000308"></polygon>
                <polygon id="Fill-8" points="170.700453 -0.000308 167.579643 25.400452 189.235123 25.400452 190.056713 18.692982 175.102543 18.692982 177.401763 -0.000308"></polygon>
                <polygon id="Fill-9" points="195.001191 -0.000308 191.880381 25.400452 213.535861 25.400452 214.358221 18.692982 199.404821 18.692982 199.721291 16.053422 214.677771 16.053422 215.516301 9.345952 200.562901 9.345952 200.880911 6.707162 215.835851 6.707162 216.657441 -0.000308"></polygon>
                <polygon id="Fill-10" points="219.301929 -0.000308 218.480339 6.707162 225.958579 6.707162 223.658589 25.400452 230.359899 25.400452 232.659119 6.707162 240.136589 6.707162 240.958179 -0.000308"></polygon>
                <polygon id="Fill-11" points="243.60336 -0.000308 240.48255 25.400452 262.13803 25.400452 262.95962 18.692982 248.00699 18.692982 248.32269 16.053422 263.27917 16.053422 264.1177 9.345952 249.16507 9.345952 249.48231 6.707162 264.43802 6.707162 265.25884 -0.000308"></polygon>
                <polygon id="Fill-12" points="267.903405 -0.000308 265.923735 16.053422 280.876365 16.053422 280.559895 18.692982 265.604955 18.692982 264.782595 25.400452 286.438845 25.400452 288.419285 9.345952 273.465885 9.345952 273.783125 6.707162 288.738835 6.707162 289.559655 -0.000308"></polygon>
            </g>
        </g>
    </g>
</svg>