<svg xmlns="http://www.w3.org/2000/svg" width="298" height="28" viewBox="0 0 298 28">
    <g fill="none" fill-opacity="0" fill-rule="evenodd">
        <g fill="#FFF" stroke="#FFF">
            <g>
                <path d="M3.116 0L0 26h6.787l.83-7.378h15.098L25 0H3.116zm5.956 6.886h8.31l-.623 4.85h-8.31l.623-4.85zM28.116 0L25 26h6.787l.83-7.239h4.503L39.82 26h7.895l-2.7-7.239h2.631L50 0H28.116zm5.887 6.886h8.31l-.623 4.99h-8.31l.623-4.99zM53.116 0L50 26h21.884L75 0H53.116zm5.887 6.886h8.31l-1.524 12.298h-8.31l1.524-12.298zM78.898 10L78 17 94.171 17 95 10zM100.116 0L97 26h6.787l.692-5.762h8.311L112.098 26h6.786L122 0h-21.884zm5.956 6.886h8.31l-.762 6.536h-8.31l.762-6.536zM124.842 0L124 6.886 131.643 6.886 129.33 26 136.131 26 138.516 6.886 146.159 6.886 147 0zM165.213 0L164.036 9.838 155.726 9.838 156.903 0 150.116 0 147 26 153.717 26 154.895 16.443 163.204 16.443 162.097 26 168.814 26 172 0zM175.165 0L172 26 194.156 26 195 19.184 179.737 19.184 182.059 0zM200.116 0L197 26 218.884 26 219.715 19.184 204.618 19.184 204.895 16.443 219.992 16.443 220.823 9.557 205.795 9.557 206.072 6.886 221.17 6.886 222 0zM223.845 0L223 6.886 230.667 6.886 228.276 26 235.168 26 237.49 6.886 245.155 6.886 246 0zM249.186 0L246 26 267.884 26 268.714 19.184 253.618 19.184 253.895 16.443 268.991 16.443 269.891 9.557 254.795 9.557 255.072 6.886 270.168 6.886 271 0zM274.185 0L272.177 16.443 287.275 16.443 286.928 19.184 271.831 19.184 271 26 292.884 26 294.893 9.557 279.795 9.557 280.072 6.886 295.169 6.886 296 0z" transform="translate(-149 -29) translate(150 30)"/>
            </g>
        </g>
    </g>
</svg>
